<?xml version="1.0" encoding="UTF-8"?>
<svg width="240" height="80" version="1.1" viewBox="0 0 63.5 21.167" xmlns="http://www.w3.org/2000/svg">
 <defs>
  <clipPath id="clipPath100">
   <path d="M 0,595.276 H 841.89 V 0 H 0 Z"/>
  </clipPath>
 </defs>
 <g transform="matrix(.17111 0 0 -.17111 -32.276 64.398)">
  <g clip-path="url(#clipPath100)">
   <g transform="matrix(1.0359 0 0 1.0359 -7.5425 -14.527)">
    <g transform="matrix(.65289 0 0 .65289 261.36 315.21)">
     <path d="m0 0-16.606-0.055c-2.072-2.813-4.183-5.541-6.165-8.406-1.966-2.841-4.063-5.613-6.554-8.018-5.387-5.201-12.495-7.816-19.972-6.564-2.664 0.445-5.242 1.354-7.596 2.679-1.138 0.64-2.223 1.376-3.24 2.196-0.51 0.412-2.831 2.031-2.831 2.702v-52.289h23.236v34.952l33.665-34.952 27.311 0.084-41.047 41.049z" fill="#104f8d"/>
    </g>
    <g transform="matrix(.65289 0 0 .65289 296.5 333.73)">
     <path d="m0 0c-2.801-0.585-5.547 1.214-6.129 4.012-0.589 2.796 1.21 5.539 4.006 6.124 2.797 0.593 5.543-1.206 6.129-4.004 0.582-2.803-1.209-5.545-4.006-6.132m-44.496 27.105c-4.071-0.846-8.067 1.758-8.918 5.843-0.856 4.074 1.76 8.068 5.831 8.922 4.073 0.849 8.073-1.763 8.923-5.834 0.855-4.08-1.76-8.076-5.836-8.931m84.699-39.941-20.232 16.985c-1.868 1.563-4.61 1.351-6.237-0.427l-9e-3 6e-3 -0.11-0.13c-4e-3 0-0.012-8e-3 -0.012-8e-3 -2e-3 -5e-3 -6e-3 -0.013-0.013-0.013l-3.92-4.685-3.121 2.653c0.738 1.59 1.012 3.409 0.63 5.25-0.475 2.272-1.829 4.141-3.641 5.319 0 0-42.783 32.665-44.155 33.346l-0.017 0.016-3e-3 -8e-3c-2.371 1.173-5.13 1.599-7.91 1.02-6.611-1.385-10.869-7.898-9.488-14.503 0.583-2.791 2.077-5.149 4.103-6.849h-3e-3l0.018-0.013c1.174-0.986 48.859-27.45 49.093-27.574l0.053-0.021c1.628-0.807 3.523-1.097 5.439-0.696 1.103 0.233 2.108 0.675 2.991 1.273l3.128-2.658-3.431-4.092h2e-3c-0.045-0.049-0.093-0.084-0.134-0.137-1.377-1.641-1.163-4.08 0.479-5.459l10.69-8.969c1.636-1.38 4.082-1.16 5.46 0.474 1.375 1.641 1.157 4.087-0.475 5.464l-5.416 4.54 0.018 0.015 1.711-1.421c1.633-1.377 4.079-1.165 5.454 0.477 1.313 1.555 1.165 3.843-0.266 5.241l13.508-11.34c1.913-1.596 4.761-1.348 6.374 0.559 1.602 1.916 1.35 4.768-0.558 6.365" fill="#104f8d"/>
    </g>
    <g transform="matrix(.65289 0 0 .65289 230.17 322.54)">
     <path d="m0 0c6.194 1.253 12.232-2.762 13.477-8.957 1.246-6.201-2.764-12.237-8.958-13.484-6.198-1.248-12.229 2.763-13.48 8.963-1.244 6.194 2.767 12.23 8.961 13.478m5.933-29.454c5.179 1.037 9.158 4.552 12.31 8.615 2.428 3.13 4.669 6.393 7.019 9.587 4.862 6.605 9.723 13.21 14.585 19.815 4.401 5.979 8.801 11.958 13.201 17.936l3.794 5.154c-5.057 2.915-9.102 5.27-10.824 6.324-0.324 0.186-0.626 0.406-0.902 0.647-2.998 2.586-4.993 5.989-5.767 9.846-0.214 1.061-0.317 2.11-0.332 3.163l-48.822-48.706c-0.682-0.577-1.308-1.219-1.895-1.886 0 0-0.151-0.153-0.144-0.166-3.594-4.196-5.302-9.935-4.134-15.764 2.025-10.06 11.854-16.591 21.911-14.565" fill="#104f8d"/>
    </g>
    <g transform="matrix(.65289 0 0 .65289 336.13 300.87)">
     <path d="m0 0-16.97 21.773h-10.176v-42.16h11.203v22.427l13.403-17.845h3.779l13.222 17.583v-22.165h12.251v42.16h-10.118z" fill="#104f8d"/>
    </g>
    <g transform="matrix(.65289 0 0 .65289 379.55 300.12)">
     <path d="m0 0h-9.97l5.058 9.267zm-10.025 22.918-23.856-42.16h13.497l4.438 8.337h21.783l4.577-8.337h14.625l-24.174 42.16z" fill="#104f8d"/>
    </g>
    <g transform="matrix(.65289 0 0 .65289 391.42 308)">
     <path d="m0 0h17.501v-31.315h12.901v31.315h17.574v10.845h-47.976z" fill="#104f8d"/>
    </g>
    <g transform="matrix(.65289 0 0 .65289 435.54 308.14)">
     <path d="m0 0h17.945c1.412 0 1.862-0.207 1.878-0.207 0.038-0.063 0.114-0.296 0.114-0.779v-4.582c0-0.543-0.09-0.755-0.076-0.779-0.083-0.042-0.562-0.241-1.916-0.241h-17.945zm29.782-14.884c1.814 1.579 2.733 3.985 2.733 7.152v8.952c0 3.196-0.924 5.608-2.74 7.172-1.753 1.501-4.337 2.233-7.899 2.233h-34.632v-42.16h12.756v14.391h5.603l15.371-14.391h19.171l-17.621 14.399c3.235 0.091 5.612 0.826 7.258 2.252" fill="#104f8d"/>
    </g>
    <path d="m465.89 287.56h8.4222v27.526h-8.4222z" fill="#104f8d" stroke-width=".65288"/>
    <g transform="matrix(.65289 0 0 .65289 502.56 302.34)">
     <path d="m0 0 18.51 19.514h-15.792l-10.717-11.99-11.293 11.99h-17.464l20.449-20.609-19.889-21.551h15.972l12.032 13.807 13.035-13.807h17.769z" fill="#104f8d"/>
    </g>
    <g transform="matrix(.65289 0 0 .65289 319.91 275.82)">
     <path d="m0 0h4.511c0.409 0 0.582-0.071 0.656-0.126 0.097-0.076 0.145-0.224 0.145-0.441v-1.067c0-0.216-0.048-0.363-0.145-0.447-0.074-0.056-0.247-0.126-0.656-0.126h-4.511zm5.432-3.994c0.735 0 1.281 0.147 1.618 0.442 0.346 0.303 0.521 0.779 0.521 1.415v2.087c0 0.645-0.175 1.121-0.521 1.416-0.337 0.294-0.883 0.44-1.618 0.44h-7.736v-9.155h2.304v3.355h1.77l3.542-3.318 0.04-0.037h3.397l-4.101 3.355z" fill="#104f8d"/>
    </g>
    <path d="m338.72 272.3h-4.2758v3.4975h4.2758zm-6e-3 4.7093h-4.2692c-0.59477 0-0.9852-0.10511-1.2026-0.31404-0.21872-0.21545-0.32187-0.59151-0.32187-1.1445v-3.0594c0-0.55625 0.10315-0.93623 0.32187-1.1478 0.21741-0.20435 0.60784-0.31077 1.2026-0.31077h4.2692c0.59152 0 0.98455 0.10642 1.202 0.31077 0.2174 0.21154 0.32579 0.59152 0.32579 1.1478v3.0594c0 0.55299-0.10839 0.92905-0.32253 1.1445-0.21741 0.20893-0.6111 0.31404-1.2052 0.31404" fill="#104f8d" stroke-width=".65288"/>
    <g transform="matrix(.65289 0 0 .65289 353.55 275.01)">
     <path d="m0 0c0-0.189-0.05-0.315-0.149-0.384-0.076-0.058-0.257-0.118-0.664-0.118h-4.583v1.847h4.583c0.407 0 0.588-0.069 0.664-0.118 0.099-0.072 0.149-0.198 0.149-0.385zm-5.396-2.233h4.583c0.445 0 0.63-0.078 0.708-0.14 0.105-0.092 0.156-0.261 0.156-0.519v-0.673c0-0.252-0.051-0.426-0.16-0.518-0.074-0.063-0.259-0.148-0.704-0.148h-4.583zm6.495 0.855c0.259 0.089 0.473 0.215 0.64 0.378 0.291 0.287 0.438 0.658 0.438 1.118v1.087c0 0.637-0.175 1.113-0.518 1.408-0.335 0.302-0.879 0.448-1.608 0.448h-7.748v-9.155h7.196c0.9 0 1.586 0.156 2.042 0.45 0.465 0.314 0.706 0.792 0.706 1.421v1.134c0 0.511-0.154 0.939-0.455 1.255-0.182 0.195-0.417 0.35-0.693 0.456" fill="#104f8d"/>
    </g>
    <path d="m368.75 272.3h-4.2758v3.4975h4.2758zm-7e-3 4.7093h-4.2692c-0.59412 0-0.98521-0.10511-1.2026-0.31404-0.21741-0.21545-0.32188-0.59151-0.32188-1.1445v-3.0594c0-0.55625 0.10447-0.93623 0.32188-1.1478 0.2174-0.20435 0.61109-0.31077 1.2026-0.31077h4.2692c0.59413 0 0.9852 0.10642 1.2052 0.31077 0.2174 0.21154 0.31926 0.59152 0.31926 1.1478v3.0594c0 0.55299-0.10186 0.92905-0.31926 1.1445-0.22003 0.20893-0.6111 0.31404-1.2052 0.31404" fill="#104f8d" stroke-width=".65288"/>
    <g transform="matrix(.65289 0 0 .65289 377.24 275.79)">
     <path d="m0 0h4.076v-7.299h2.339v7.299h4.094v1.855h-10.509z" fill="#104f8d"/>
    </g>
    <path d="m391.2 271.03h1.5232v5.9765h-1.5232z" fill="#104f8d" stroke-width=".65288"/>
    <g transform="matrix(.65289 0 0 .65289 406 277.01)">
     <path d="m0 0h-5.305c-0.908 0-1.512-0.153-1.841-0.481-0.333-0.33-0.495-0.906-0.495-1.753v-4.686c0-0.852 0.162-1.434 0.495-1.758 0.332-0.313 0.933-0.476 1.841-0.476h5.305c0.903 0 1.502 0.163 1.835 0.476 0.34 0.324 0.502 0.897 0.502 1.758v1.162l-2.337 0.485v-1.94h-5.305v5.358h5.305v-1.708l2.337 0.371v0.958c0 0.855-0.162 1.423-0.502 1.753-0.333 0.328-0.932 0.481-1.835 0.481" fill="#104f8d"/>
    </g>
    <g transform="matrix(.65289 0 0 .65289 420.49 274.75)">
     <path d="m0 0h-5.4v1.639h5.544v-1.042l2.093 0.49v0.286c0 0.772-0.171 1.311-0.517 1.618-0.348 0.316-0.943 0.469-1.818 0.469h-5.043c-0.911 0-1.513-0.161-1.844-0.481-0.333-0.33-0.495-0.906-0.495-1.753v-0.988c0-0.846 0.162-1.423 0.495-1.749 0.331-0.323 0.933-0.484 1.844-0.484h5.404v-1.758h-6.01v1.084l-2.094-0.434v-0.357c0-0.848 0.164-1.421 0.501-1.75 0.333-0.321 0.938-0.484 1.853-0.484h5.487c0.918 0 1.523 0.163 1.86 0.484 0.335 0.329 0.496 0.902 0.496 1.75v1.221c0 0.852-0.161 1.427-0.496 1.757-0.337 0.321-0.942 0.482-1.86 0.482" fill="#104f8d"/>
    </g>
    <g transform="matrix(.65289 0 0 .65289 445.18 274.75)">
     <path d="m0 0h-5.406v1.639h5.55v-1.042l2.094 0.49v0.286c0 0.772-0.178 1.311-0.522 1.618-0.342 0.316-0.939 0.469-1.818 0.469h-5.038c-0.914 0-1.512-0.161-1.845-0.481-0.333-0.33-0.497-0.906-0.497-1.753v-0.988c0-0.846 0.164-1.423 0.497-1.749 0.333-0.323 0.931-0.484 1.845-0.484h5.4v-1.758h-6.01v1.084l-2.095-0.434v-0.357c0-0.848 0.166-1.421 0.501-1.75 0.337-0.321 0.943-0.484 1.857-0.484h5.487c0.914 0 1.52 0.163 1.853 0.484 0.336 0.329 0.501 0.902 0.501 1.75v1.221c0 0.852-0.165 1.427-0.501 1.757-0.333 0.321-0.939 0.482-1.853 0.482" fill="#104f8d"/>
    </g>
    <g transform="matrix(.65289 0 0 .65289 457.44 274.82)">
     <path d="m0 0-2.948 3.305-0.042 0.042h-3.127l4.793-5.1v-4.055h2.349v4.105l4.778 5.05h-2.802z" fill="#104f8d"/>
    </g>
    <g transform="matrix(.65289 0 0 .65289 473.05 274.75)">
     <path d="m0 0h-5.398v1.639h5.545v-1.042l2.092 0.49v0.286c0 0.772-0.176 1.311-0.519 1.618-0.346 0.316-0.939 0.469-1.817 0.469h-5.043c-0.91 0-1.512-0.161-1.841-0.481-0.333-0.33-0.494-0.906-0.494-1.753v-0.988c0-0.846 0.161-1.423 0.494-1.749 0.329-0.323 0.931-0.484 1.841-0.484h5.404v-1.758h-6.01v1.084l-2.091-0.434v-0.357c0-0.848 0.162-1.421 0.498-1.75 0.332-0.321 0.939-0.484 1.856-0.484h5.483c0.918 0 1.524 0.163 1.856 0.484 0.34 0.329 0.501 0.902 0.501 1.75v1.221c0 0.852-0.161 1.427-0.501 1.757-0.332 0.321-0.938 0.482-1.856 0.482" fill="#104f8d"/>
    </g>
    <g transform="matrix(.65289 0 0 .65289 481.53 275.79)">
     <path d="m0 0h4.076v-7.299h2.336v7.299h4.093v1.855h-10.505z" fill="#104f8d"/>
    </g>
    <g transform="matrix(.65289 0 0 .65289 497.01 273.56)">
     <path d="m0 0h4.104v1.778h-4.104v1.719h7.025v1.784h-9.364v-9.154h9.448v1.941h-7.109z" fill="#104f8d"/>
    </g>
    <g transform="matrix(.65289 0 0 .65289 516.12 277.01)">
     <path d="m0 0-4.031-5.286-4.118 5.286h-1.873v-9.154h1.939v5.626c0 0.096 0 0.202-3e-3 0.306 0.074-0.112 0.15-0.23 0.244-0.357l3.345-4.454 0.038-0.048h0.548l3.378 4.489c0.067 0.089 0.134 0.203 0.215 0.342-7e-3 -0.11-0.011-0.202-0.011-0.278v-5.626h2.185v9.154z" fill="#104f8d"/>
    </g>
    <path d="m517.46 282.57h-199.17v0.55757h199.17z" fill="#104f8d" stroke-width=".65288"/>
    <g transform="matrix(.65289 0 0 .65289 316.63 343.13)">
     <path d="m0 0h-2.492v1.537h6.811v-1.537h-2.491v-6.776h-1.828z" fill="#104f8d"/>
    </g>
    <g transform="matrix(.65289 0 0 .65289 320.07 344.13)">
     <path d="m0 0h2.573l1.945-5.716h0.023l1.839 5.716h2.573v-8.313h-1.711v5.892h-0.024l-2.037-5.892h-1.409l-2.037 5.834h-0.024v-5.834h-1.711z" fill="#104f8d"/>
    </g>
   </g>
  </g>
 </g>
</svg>
